<svg xmlns:dc="http://purl.org/dc/elements/1.1/" xmlns:cc="http://creativecommons.org/ns#" xmlns:rdf="http://www.w3.org/1999/02/22-rdf-syntax-ns#"
  xmlns:svg="http://www.w3.org/2000/svg" xmlns="http://www.w3.org/2000/svg" xmlns:sodipodi="http://sodipodi.sourceforge.net/DTD/sodipodi-0.dtd"
  xmlns:inkscape="http://www.inkscape.org/namespaces/inkscape" version="1.1" x="0px" y="0px" viewBox="0 0 100 125">
  <g transform="translate(0,-952.36218)">
    <path style="font-size:medium;font-style:normal;font-variant:normal;font-weight:normal;font-stretch:normal;text-indent:0;text-align:start;text-decoration:none;line-height:normal;letter-spacing:normal;word-spacing:normal;text-transform:none;direction:ltr;block-progression:tb;writing-mode:lr-tb;text-anchor:start;baseline-shift:baseline;opacity:1;color:#000000;fill:#000000;fill-opacity:1;stroke:none;stroke-width:4;marker:none;visibility:visible;display:inline;overflow:visible;enable-background:accumulate;font-family:Sans;-inkscape-font-specification:Sans"
      d="M 50 6 C 25.723216 6 6 25.7232 6 50 C 6 74.2768 25.723216 94 50 94 C 74.276784 94 94 74.2768 94 50 C 94 25.7232 74.276784 6 50 6 z M 50 10 C 72.11501 10 90 27.88497 90 50 C 90 72.115 72.11501 90 50 90 C 27.88499 90 10 72.115 10 50 C 10 27.88497 27.88499 10 50 10 z M 37 36 C 34.790901 36 33 37.7909 33 40 C 33 42.2092 34.790901 44 37 44 C 39.209101 44 41 42.2092 41 40 C 41 37.7909 39.209101 36 37 36 z M 63 36 C 60.790899 36 59 37.7909 59 40 C 59 42.2092 60.790899 44 63 44 C 65.209099 44 67 42.2092 67 40 C 67 37.7909 65.209099 36 63 36 z M 50 61 C 46.425087 61 42.682246 62.0805 39.375 63.6875 C 36.067754 65.2945 33.206812 67.38055 31.40625 69.78125 A 2.0002 2.0002 0 1 0 34.59375 72.1875 C 35.793188 70.5882 38.258162 68.67435 41.125 67.28125 C 43.991838 65.88825 47.271141 65 50 65 C 52.728858 65 56.008162 65.88825 58.875 67.28125 C 61.741838 68.67435 64.206812 70.5882 65.40625 72.1875 A 2.0002 2.0002 0 1 0 68.59375 69.78125 C 66.793188 67.38055 63.932246 65.2945 60.625 63.6875 C 57.317754 62.0805 53.574913 61 50 61 z "
      transform="translate(0,952.36218)" />
  </g>
</svg>
