<svg xmlns="http://www.w3.org/2000/svg" data-name="Layer 1" viewBox="0 0 80 100" x="0px" y="0px">
  <path d="M58.21,12l-29,5.75A1.5,1.5,0,0,0,28,19.25V29.5h0V55.12a10.28,10.28,0,0,0-7.92-.71,10.82,10.82,0,0,0-5.61,3.64,6.11,6.11,0,0,0-1.28,5.46c.8,2.81,3.85,4.54,7.42,4.54a11.77,11.77,0,0,0,3.24-.46c3.65-1,6.46-3.71,7-6.64A8.3,8.3,0,0,0,31,59.26V30.72l26-5.38V49.12a10.28,10.28,0,0,0-7.92-.71c-4.84,1.38-7.92,5.47-6.88,9.1.8,2.81,3.85,4.54,7.42,4.54a11.77,11.77,0,0,0,3.24-.46c3.65-1,6.46-3.71,7-6.64A8,8,0,0,0,60,53.56s0,0,0-.06v-30h0v-10A1.5,1.5,0,0,0,58.21,12Z"
  />
</svg>
