<svg xmlns="http://www.w3.org/2000/svg" xmlns:xlink="http://www.w3.org/1999/xlink" viewBox="0 0 84 105" version="1.1" xml:space="preserve"
  style="" x="0px" y="0px" fill-rule="evenodd" clip-rule="evenodd" stroke-linejoin="round" stroke-miterlimit="1.41421">
  <path d="M41.836,0.111C64.932,0.111 83.683,18.884 83.683,42.008C83.683,65.132 64.932,83.906 41.836,83.906C18.74,83.906 -0.01,65.132 -0.01,42.008C-0.01,18.884 18.74,0.111 41.836,0.111ZM41.836,3.798C62.9,3.798 80.001,20.919 80.001,42.008C80.001,63.097 62.9,80.219 41.836,80.219C20.773,80.219 3.672,63.097 3.672,42.008C3.672,20.919 20.773,3.798 41.836,3.798Z"
    style="" fill="black" />
  <g transform="matrix(-6.21723e-17,-1.01535,-1.01535,6.21723e-17,96.9442,87.7886)">
    <path d="M45.088,33.418L62.678,68.598L27.498,68.598L45.088,33.418Z" style="" fill="black" />
  </g>
</svg>
