<svg xmlns="http://www.w3.org/2000/svg" xmlns:xlink="http://www.w3.org/1999/xlink" version="1.1" x="0px" y="0px" viewBox="0 0 512 640"
  enable-background="new 0 0 512 512" xml:space="preserve">
  <g>
    <path d="M256,78.2C118.2,78.2,2,187.4,2,256s116.2,177.8,254,177.8S510,324.6,510,256S393.8,78.2,256,78.2z M256,383   c-118.9,0-203.2-96.3-203.2-127S137.1,129,256,129c113.1,0,203.2,91.2,203.2,127C459.2,286.7,374.9,383,256,383z"
    />
    <path d="M256,179.8c-42.1,0-76.2,34.1-76.2,76.2c0,42.1,34.1,76.2,76.2,76.2s76.2-34.1,76.2-76.2   C332.2,213.9,298.1,179.8,256,179.8z"
    />
  </g>
</svg>